<?xml version="1.0" standalone="no"?>
<!DOCTYPE svg PUBLIC "-//W3C//DTD SVG 20010904//EN"
 "http://www.w3.org/TR/2001/REC-SVG-20010904/DTD/svg10.dtd">
<svg version="1.0" xmlns="http://www.w3.org/2000/svg"
 width="500.000000pt" height="500.000000pt" viewBox="0 0 500.000000 500.000000"
 preserveAspectRatio="xMidYMid meet">

<g transform="translate(0.000000,500.000000) scale(0.100000,-0.100000)"
fill="#000000" stroke="none">
<path d="M2445 4155 c-27 -8 -549 -254 -1160 -548 -1098 -528 -1110 -534
-1110 -563 0 -25 7 -32 51 -54 29 -14 59 -31 68 -39 14 -12 16 -90 16 -811 0
-774 -1 -799 -20 -841 -15 -34 -20 -66 -20 -141 l0 -98 89 0 c57 0 92 4 97 12
20 33 -1 187 -32 233 l-24 36 0 759 0 759 21 6 c29 10 85 -3 140 -30 25 -13
147 -69 270 -125 243 -110 287 -140 308 -216 7 -25 11 -201 11 -497 0 -491 1
-498 51 -544 13 -12 294 -153 624 -314 568 -276 604 -292 666 -297 l66 -4 589
257 c324 141 612 267 640 281 92 44 88 20 94 614 6 572 3 548 74 607 19 15
119 66 223 112 158 71 401 184 606 281 44 21 48 26 45 53 -3 30 -23 40 -1086
568 -1209 600 -1163 581 -1297 544z m941 -556 c434 -215 831 -412 882 -437 68
-33 98 -54 108 -75 18 -33 11 -77 -15 -101 -18 -16 -301 -149 -671 -315 -113
-50 -216 -100 -230 -111 -25 -19 -25 -21 -30 -205 l-5 -187 -28 -24 c-50 -43
-83 -35 -277 71 -96 52 -183 95 -193 95 -10 0 -91 -34 -180 -76 -197 -92 -226
-101 -283 -86 -23 6 -242 104 -486 218 -545 254 -1222 566 -1266 584 -42 17
-82 64 -82 99 0 43 28 71 104 106 39 18 429 205 866 415 437 211 813 391 835
401 25 11 63 19 101 19 60 0 70 -5 850 -391z m-1653 -1305 c188 -86 385 -178
437 -204 279 -140 366 -146 579 -41 156 76 220 72 377 -26 134 -84 352 -195
376 -191 41 6 48 41 53 289 3 129 10 249 16 266 14 43 44 63 95 63 35 0 47 -5
68 -31 l26 -31 0 -379 c0 -414 -1 -419 -57 -472 -20 -18 -227 -115 -579 -270
-533 -235 -551 -242 -614 -242 -65 0 -70 2 -455 192 -215 105 -444 215 -510
244 -140 62 -206 112 -249 189 l-31 55 -2 325 c-1 192 3 338 9 357 12 41 42
63 86 63 22 0 151 -54 375 -156z"/>
<path d="M2330 3662 c-14 -1 -46 -12 -72 -24 -98 -44 -121 -31 640 -376 379
-172 694 -312 701 -312 40 0 123 34 138 56 14 23 14 26 -1 43 -9 10 -31 22
-49 28 -17 6 -309 138 -647 293 -338 156 -631 286 -650 289 -19 4 -46 5 -60 3z"/>
<path d="M1785 3412 c-76 -41 -69 -55 55 -111 58 -27 293 -134 522 -239 229
-105 429 -194 443 -198 18 -4 49 2 95 21 67 27 90 49 72 67 -5 5 -108 54 -228
109 -933 427 -865 402 -959 351z"/>
<path d="M1352 3206 c-29 -12 -59 -29 -68 -37 -19 -19 -9 -46 19 -55 23 -6
544 -242 1046 -473 227 -104 293 -131 328 -131 52 0 101 19 128 49 25 29 13
48 -45 70 -25 10 -331 149 -681 309 -351 161 -645 292 -655 292 -11 -1 -43
-11 -72 -24z"/>
<path d="M1378 2051 c-3 -159 -1 -291 4 -311 22 -81 60 -108 283 -205 61 -26
267 -126 458 -222 216 -108 360 -174 380 -175 23 -1 203 73 567 232 294 128
543 240 553 248 13 12 17 31 17 96 l0 80 -32 -31 c-48 -46 -81 -56 -142 -43
-56 12 -194 82 -381 194 -145 86 -174 90 -276 37 -107 -56 -187 -82 -273 -88
-109 -7 -175 11 -361 98 -145 69 -606 283 -731 339 l-61 28 -5 -277z"/>
</g>
</svg>
